<?xml version="1.0" encoding="UTF-8" standalone="no"?>
<!-- Generator: Adobe Illustrator 23.0.1, SVG Export Plug-In . SVG Version: 6.00 Build 0)  -->

<svg
   version="1.1"
   id="Livello_1"
   x="0px"
   y="0px"
   viewBox="0 0 130.41198 108.04751"
   enable-background="new 0 0 240.1 240.1"
   xml:space="preserve"
   sodipodi:docname="telegram_logo.svg"
   width="130.41199"
   height="108.04751"
   inkscape:version="1.2 (1:1.2.1+202207142221+cd75a1ee6d)"
   xmlns:inkscape="http://www.inkscape.org/namespaces/inkscape"
   xmlns:sodipodi="http://sodipodi.sourceforge.net/DTD/sodipodi-0.dtd"
   xmlns="http://www.w3.org/2000/svg"
   xmlns:svg="http://www.w3.org/2000/svg"><defs
   id="defs13" /><sodipodi:namedview
   id="namedview11"
   pagecolor="#ffffff"
   bordercolor="#cccccc"
   borderopacity="1"
   inkscape:showpageshadow="0"
   inkscape:pageopacity="0"
   inkscape:pagecheckerboard="true"
   inkscape:deskcolor="#d1d1d1"
   showgrid="false"
   inkscape:zoom="1.7768709"
   inkscape:cx="-65.846088"
   inkscape:cy="115.08996"
   inkscape:window-width="1920"
   inkscape:window-height="981"
   inkscape:window-x="0"
   inkscape:window-y="0"
   inkscape:window-maximized="1"
   inkscape:current-layer="Artboard" />
<g
   id="Artboard"
   transform="translate(-45.370863,-72.2)">
	
		<linearGradient
   id="Oval_1_"
   gradientUnits="userSpaceOnUse"
   x1="-838.04102"
   y1="660.58099"
   x2="-838.04102"
   y2="660.34271"
   gradientTransform="matrix(1000,0,0,-1000,838161,660581)">
		<stop
   offset="0"
   style="stop-color:#2AABEE"
   id="stop2" />
		<stop
   offset="1"
   style="stop-color:#229ED9"
   id="stop4" />
	</linearGradient>
	
	<path
   id="Path-3"
   fill-rule="evenodd"
   clip-rule="evenodd"
   fill="#ffffff"
   d="m 54.3,118.8 c 35,-15.2 58.3,-25.3 70,-30.2 33.3,-13.9 40.3,-16.3 44.8,-16.4 1,0 3.2,0.2 4.7,1.4 1.2,1 1.5,2.3 1.7,3.3 0.2,1 0.4,3.1 0.2,4.7 -1.8,19 -9.6,65.1 -13.6,86.3 -1.7,9 -5,12 -8.2,12.3 -7,0.6 -12.3,-4.6 -19,-9 -10.6,-6.9 -16.5,-11.2 -26.8,-18 -11.9,-7.8 -4.2,-12.1 2.6,-19.1 1.8,-1.8 32.5,-29.8 33.1,-32.3 0.1,-0.3 0.1,-1.5 -0.6,-2.1 -0.7,-0.6 -1.7,-0.4 -2.5,-0.2 -1.1,0.2 -17.9,11.4 -50.6,33.5 -4.8,3.3 -9.1,4.9 -13,4.8 -4.3,-0.1 -12.5,-2.4 -18.7,-4.4 -7.5,-2.4 -13.5,-3.7 -13,-7.9 0.3,-2.2 3.3,-4.4 8.9,-6.7 z" />
</g>
</svg>
